<svg width="1280" height="804" viewBox="0 0 1280 804" fill="none" xmlns="http://www.w3.org/2000/svg">
<line x1="80.5" y1="2.18557e-08" x2="80.5" y2="797" stroke="#DADADA"/>
<line x1="180.5" y1="2.18557e-08" x2="180.5" y2="797" stroke="#DADADA"/>
<line x1="280.5" y1="2.18557e-08" x2="280.5" y2="797" stroke="#DADADA"/>
<line x1="380.5" y1="2.18557e-08" x2="380.5" y2="797" stroke="#DADADA"/>
<line x1="480.5" y1="2.18557e-08" x2="480.5" y2="797" stroke="#DADADA"/>
<line x1="580.5" y1="2.18557e-08" x2="580.5" y2="797" stroke="#DADADA"/>
<line x1="680.5" y1="2.18557e-08" x2="680.5" y2="797" stroke="#DADADA"/>
<line x1="780.5" y1="2.18557e-08" x2="780.5" y2="797" stroke="#DADADA"/>
<line x1="880.5" y1="2.18557e-08" x2="880.5" y2="797" stroke="#DADADA"/>
<line x1="980.5" y1="2.18557e-08" x2="980.5" y2="797" stroke="#DADADA"/>
<line x1="1080.5" y1="2.18557e-08" x2="1080.5" y2="797" stroke="#DADADA"/>
<line x1="1180.5" y1="2.18557e-08" x2="1180.5" y2="797" stroke="#DADADA"/>
<line x1="2.73813e-08" y1="803.5" x2="1280" y2="803.5" stroke="#DADADA"/>
<line x1="2.73813e-08" y1="703.5" x2="1280" y2="703.5" stroke="#DADADA"/>
<line x1="2.73813e-08" y1="603.5" x2="1280" y2="603.5" stroke="#DADADA"/>
<line x1="2.73813e-08" y1="503.5" x2="1280" y2="503.5" stroke="#DADADA"/>
<line x1="2.73813e-08" y1="403.5" x2="1280" y2="403.5" stroke="#DADADA"/>
<line x1="2.73813e-08" y1="303.5" x2="1280" y2="303.5" stroke="#DADADA"/>
<line x1="2.73813e-08" y1="203.5" x2="1280" y2="203.5" stroke="#DADADA"/>
<line x1="2.73813e-08" y1="103.5" x2="1280" y2="103.5" stroke="#DADADA"/>
<line x1="2.73813e-08" y1="3.5" x2="1280" y2="3.50004" stroke="#DADADA"/>
</svg>
